<svg xmlns="http://www.w3.org/2000/svg" viewBox="0 0 32.01 32.2"><defs><style>.cls-1{fill:#fdfefe;}</style></defs><title>IB_CT_Icon_WhiteIron&amp;amp;Steel</title><g id="Layer_2" data-name="Layer 2"><g id="Layer_1-2" data-name="Layer 1"><path class="cls-1" d="M31.4,28.9c-1-1.1-6-6-7-7.1L29,14.5h0v-.2h0v-.2a.1.1,0,0,0-.1-.1l-.1-.1h0L23.5,9.4a.52.52,0,0,0-.4-.2H21.2L18.3,7.5a.45.45,0,0,0-.5,0L15.2,9l-3,.4A12.18,12.18,0,0,1,10,6c-.1-.4-.1-.6.2-.7a17.57,17.57,0,0,1,9.4-3.1,1.25,1.25,0,0,0,1.1-.6.91.91,0,0,0,0-1A1.35,1.35,0,0,0,19.4,0,19.52,19.52,0,0,0,7.2,4.3a2.11,2.11,0,0,0-2.4.3,2.14,2.14,0,0,0-.4,2.5A19.46,19.46,0,0,0,0,19.6a1,1,0,0,0,1.1,1.1h0a.92.92,0,0,0,1-.9,18.07,18.07,0,0,1,3.1-9.2s.5-.8.9-.6a15.59,15.59,0,0,1,3.2,2.7l-.5.3c-.1.1-.2.2-.2.3L8,15v.3l1.8,7.5V23l.1.1.1.1h0l4.8,2.7a.35.35,0,0,1,.2.1.37.37,0,0,0,.3-.1l1.9-1.2,4.3-.6L29,31.5a2.06,2.06,0,0,0,1.4.7,2.1,2.1,0,0,0,1.1-.4A2.15,2.15,0,0,0,31.4,28.9ZM17.1,23.5l-4.6-3.7,1.8-4.3L23,12.6l1.7,2a.52.52,0,0,0,.4.2h2.5l-5,8Zm4-13.3h1.5v1.5L14,14.5l-3.2-1.9,1.4-2.1,3.3,1h.3l3.4-1.4h1.9Zm2.5.6,3.5,3H25.3l-1.7-1.9ZM13.3,15.3l-1.2,3.1-1.2-4.6ZM15.4,10c.1,0,.1,0,.2-.1l2.5-1.4,1.1.7h-.3l-3.3,1.3-1.3-.4Zm-11.1.1a19.61,19.61,0,0,0-3.2,9.6H1v-.1A18.66,18.66,0,0,1,5.4,7.4a.48.48,0,0,0,0-.7c-.4-.3-.3-1,.1-1.4A.91.91,0,0,1,6.2,5a1.08,1.08,0,0,1,.7.3c.2.2.5.2.6,0A18,18,0,0,1,19.2,1h.2c.2,0,.3.1.4,0a.35.35,0,0,1-.2.1h0A18.32,18.32,0,0,0,9.7,4.4,1.62,1.62,0,0,0,9,6.3,13.76,13.76,0,0,0,11.4,10l-.8,1.2L10,12A19.08,19.08,0,0,0,6.4,9C5.4,8.7,4.6,9.6,4.3,10.1Zm5.1,3.6.4-.2,1.7,6.4-1,1.5L9,15.1Zm5.6,11-4-2.3,1.2-1.7,4,3.3Zm15.8,6.1c-.2.2-.7.3-1.2-.2l-7-6.9h.3c.1,0,.3-.1.3-.2l.5-.8c1.3,1.3,5.9,6,6.9,6.9C31.1,30.1,31.1,30.6,30.8,30.8Z"/><path class="cls-1" d="M20.7,27.2a1,1,0,0,0-.4,1.3.88.88,0,0,0,1.3.4,1,1,0,0,0,.4-1.3A1.09,1.09,0,0,0,20.7,27.2Z"/><path class="cls-1" d="M17.4,26.1a1,1,0,0,0-.4,1.3.88.88,0,0,0,1.3.4,1,1,0,0,0,.4-1.3A1.05,1.05,0,0,0,17.4,26.1Z"/></g></g></svg>