<?xml version="1.0" encoding="utf-8" ?>
<!-- Generator: Adobe Illustrator 21.0.0, SVG Export Plug-In . SVG Version: 6.00 Build 0)  -->
<svg
  version="1.0"
  id="Laag_1"
  xmlns="http://www.w3.org/2000/svg"
  xmlns:xlink="http://www.w3.org/1999/xlink"
  x="0px"
  y="0px"
  viewBox="0 0 32 32"
  style="enable-background:new 0 0 32 32;"
  xml:space="preserve"
>
<style type="text/css">
	.st0{fill:#0e56c2;}
</style>
<g>
	<path
      class="st0"
      d="M28.8,6.4c-0.1-0.1-0.2-0.2-0.4-0.2c-0.1,0-0.3,0-0.4,0.1L6.3,28c-0.1,0.1-0.2,0.2-0.1,0.4
		c0,0.1,0.1,0.3,0.2,0.4C9.1,30.9,12.5,32,16,32c8.8,0,16-7.2,16-16C32,12.5,30.9,9.1,28.8,6.4z M13.4,22.4l10.2-10.2l1,1.2
		c0.1,0.1,0.2,0.2,0.4,0.2l3.2,0l-6.2,9.6L15.5,24L13.4,22.4z M14.5,24.5l-1.6,1l-1.7-1l1.5-1.5L14.5,24.5z M25.2,12.5l-0.9-1.1l1-1
		l2.5,2.1L25.2,12.5z M16,31c-3.1,0-6.1-0.9-8.6-2.7l3-3l2.2,1.2c0.1,0,0.2,0.1,0.2,0.1c0.1,0,0.2,0,0.3-0.1l2.3-1.4l7-1
		c0.1,0,0.3-0.1,0.4-0.2l6.8-10.6c0,0,0,0,0,0c0,0,0-0.1,0-0.1c0,0,0-0.1,0-0.1c0,0,0,0,0,0c0,0,0,0,0,0c0,0,0-0.1,0-0.1
		c0,0,0,0,0-0.1c0,0,0-0.1-0.1-0.1c0,0,0,0-0.1-0.1c0,0,0,0,0,0L26,9.7l2.3-2.3C30.1,9.9,31,12.9,31,16C31,24.3,24.3,31,16,31z"
    />
	<path
      class="st0"
      d="M25.8,3.6c0-0.1-0.1-0.3-0.2-0.4C22.9,1.1,19.5,0,16,0C7.2,0,0,7.2,0,16c0,3.5,1.1,6.9,3.2,9.6
		c0.1,0.1,0.2,0.2,0.4,0.2c0,0,0,0,0,0c0.1,0,0.3-0.1,0.4-0.1L25.7,4C25.8,3.9,25.9,3.7,25.8,3.6z M13.5,9.7c0,0,0.1,0,0.1,0
		c0.1,0,0.1,0,0.2,0L18,8.1h2.3l-3.8,3.8l-4.7,1.5l-3.9-2.3l1.8-2.6L13.5,9.7z M11.7,8.1l1.7-0.2c0.1,0,0.1,0,0.2-0.1l3-1.7l1.7,1
		h-0.5c-0.1,0-0.1,0-0.2,0l-4,1.6L11.7,8.1z M12.1,14.4l2.8-0.9l-4.1,4.1L12.1,14.4z M9.4,18.2l-1.6-5.9l3.2,1.9L9.4,18.2z
		 M8.7,19.5L7.3,21L5.5,14l0.6-1.7L6.7,12L8.7,19.5z M21.2,7.1h-0.8l-3.5-2c-0.2-0.1-0.3-0.1-0.5,0l-3.2,1.8L9.3,7.4c0,0,0,0,0,0
		l0,0c0,0,0,0,0,0c-0.1,0-0.1,0-0.1,0.1c0,0,0,0-0.1,0c0,0-0.1,0.1-0.1,0.1c0,0,0,0,0,0l-2.2,3.2l-1.2,0.7c-0.1,0.1-0.2,0.1-0.2,0.3
		l-0.7,2c0,0.1,0,0.2,0,0.3l1.9,7.8l-2.7,2.7C1.9,22.1,1,19.1,1,16C1,7.7,7.7,1,16,1c3.1,0,6.1,0.9,8.6,2.7L21.2,7.1z"
    />
	<ellipse
      transform="matrix(0.8928 -0.4504 0.4504 0.8928 -10.3715 12.4485)"
      class="st0"
      cx="21"
      cy="28"
      rx="1.1"
      ry="1.1"
    />
	<ellipse
      transform="matrix(0.8928 -0.4504 0.4504 0.8928 -10.3346 10.7099)"
      class="st0"
      cx="17.3"
      cy="27.1"
      rx="1.1"
      ry="1.1"
    />
</g>
</svg>
