<?xml version="1.0" encoding="utf-8" ?>
<!-- Generator: Adobe Illustrator 21.0.0, SVG Export Plug-In . SVG Version: 6.00 Build 0)  -->
<svg
  version="1.0"
  id="Laag_1"
  xmlns="http://www.w3.org/2000/svg"
  xmlns:xlink="http://www.w3.org/1999/xlink"
  x="0px"
  y="0px"
  viewBox="0 0 32 32"
  style="enable-background:new 0 0 32 32;"
  xml:space="preserve"
>
<style type="text/css">
	.st0{fill:#0e56c2;}
</style>
<g>
	<path
      class="st0"
      d="M31.3,26.6c-0.1-0.1-6.2-9.1-8.1-11.9c-1.5-2.2-2-3.1-2-5l0-4.6c1.1-0.3,1.9-1.4,1.9-2.5
		c0-1.5-1.2-2.6-2.8-2.6h-8.5C10.3,0,9,1.2,9,2.6c0,1.1,0.7,2.1,1.8,2.5v4.7c0,1.8-0.5,2.8-2,5c-1.9,2.8-8.1,11.8-8.1,11.9
		c-0.8,1.3-0.9,2.6-0.3,3.7c0.6,1,1.7,1.7,3,1.7h25.3c1.3,0,2.4-0.6,3-1.7C32.2,29.3,32.1,27.9,31.3,26.6z M30.7,29.8
		c-0.4,0.7-1.2,1.1-2.1,1.1H3.4c-0.9,0-1.7-0.4-2.1-1.1c-0.4-0.8-0.3-1.7,0.3-2.7c0.1-0.1,6.2-9.1,8.1-11.9c1.6-2.3,2.2-3.5,2.2-5.6
		V4.7c0-0.2-0.2-0.5-0.4-0.5C10.6,4.1,10,3.4,10,2.6C10,1.8,10.8,1,11.8,1h8.5c1,0,1.7,0.7,1.7,1.6c0,0.8-0.6,1.5-1.5,1.6
		c-0.3,0-0.4,0.3-0.4,0.5l0,5.1c0,0,0,0,0,0c0,2.1,0.6,3.3,2.2,5.6c1.9,2.7,8,11.8,8.1,11.8C31,28.1,31.1,29.1,30.7,29.8z"
    />
	<path
      class="st0"
      d="M19.5,15.1c-0.1-0.1-0.3-0.2-0.4-0.2h-6.5c-0.2,0-0.3,0.1-0.4,0.2c-0.1,0.1-8,12.2-8.7,13.1
		c-0.1,0.2-0.1,0.4,0,0.5C3.6,28.9,3.7,29,3.9,29h24.1c0.2,0,0.4-0.1,0.5-0.3c0.1-0.2,0.1-0.4,0-0.5C26.9,26,19.6,15.2,19.5,15.1z
		 M4.9,28c1.8-2.7,7-10.6,8-12.1h5.9c1,1.4,6.2,9.1,8.3,12.1H4.9z"
    />
	<path
      class="st0"
      d="M13.7,5.2h4.7c0.3,0,0.5-0.2,0.5-0.5s-0.2-0.5-0.5-0.5h-4.7c-0.3,0-0.5,0.2-0.5,0.5S13.4,5.2,13.7,5.2z"
    />
	<path
      class="st0"
      d="M14.8,17.8c-1.4,0-2.5,1.1-2.5,2.5s1.1,2.5,2.5,2.5c1.4,0,2.5-1.1,2.5-2.5S16.1,17.8,14.8,17.8z M14.8,21.7
		c-0.8,0-1.5-0.7-1.5-1.5s0.7-1.5,1.5-1.5s1.5,0.7,1.5,1.5S15.6,21.7,14.8,21.7z"
    />
	<circle class="st0" cx="20.7" cy="25" r="0.9" />
</g>
</svg>
