<svg xmlns="http://www.w3.org/2000/svg" viewBox="0 0 32.1 32.1"><defs><style>.cls-1{fill:#fdfefe;}</style></defs><title>IB_CT_Icon_WhiteAmmonium Nitrate</title><g id="Layer_2" data-name="Layer 2"><g id="Layer_1-2" data-name="Layer 1"><path class="cls-1" d="M17.8,19.5a2.27,2.27,0,0,0-1.6.6l-2.5-1.4a3.42,3.42,0,0,0,.4-1.8,4,4,0,0,0-3.6-4V4.5a2.26,2.26,0,0,0,1.8-2.2A2.26,2.26,0,0,0,10,0,2.18,2.18,0,0,0,7.8,2.3,2.26,2.26,0,0,0,9.6,4.5V13A4.09,4.09,0,0,0,6,17a5.84,5.84,0,0,0,.4,1.8L3.9,20.2a2.27,2.27,0,0,0-1.6-.6,2.3,2.3,0,0,0,0,4.6,2.26,2.26,0,0,0,2.3-2.3,2.35,2.35,0,0,0-.2-.8l2.5-1.4a4,4,0,0,0,2.6,1.4V24a2.26,2.26,0,0,0-1.8,2.2A2.33,2.33,0,0,0,10,28.5a2.28,2.28,0,0,0,.5-4.5V21a3.94,3.94,0,0,0,2.6-1.4L15.6,21a1.88,1.88,0,0,0-.2.8,2.3,2.3,0,0,0,4.6,0A2.24,2.24,0,0,0,17.8,19.5ZM2.3,23.1a1.3,1.3,0,0,1,0-2.6,1.3,1.3,0,0,1,0,2.6ZM8.8,2.3A1.24,1.24,0,0,1,10,1a1.32,1.32,0,0,1,1.3,1.3A1.24,1.24,0,0,1,10,3.5,1.16,1.16,0,0,1,8.8,2.3Zm2.5,23.9A1.3,1.3,0,1,1,10,24.9,1.32,1.32,0,0,1,11.3,26.2ZM10,20.1A3.1,3.1,0,1,1,13.1,17,3.12,3.12,0,0,1,10,20.1Zm7.8,3a1.3,1.3,0,1,1,1.3-1.3A1.32,1.32,0,0,1,17.8,23.1Z"/><path class="cls-1" d="M11.3,15.2a.47.47,0,0,0-.5.5v1.5L9,15.3c-.1-.1-.4-.2-.5-.1a.55.55,0,0,0-.3.5v2.7a.5.5,0,0,0,1,0V17l1.9,1.9c.1.1.2.1.4.1h.2a.55.55,0,0,0,.3-.5V15.8C11.8,15.4,11.6,15.2,11.3,15.2Z"/><path class="cls-1" d="M29.7,7.3a2.33,2.33,0,0,0-2.3,2.3,1.88,1.88,0,0,0,.2.8l-2.4,1.4a4.2,4.2,0,0,0-3.1-1.5A3.89,3.89,0,0,0,19,11.8l-2.5-1.4a1.88,1.88,0,0,0,.2-.8,2.26,2.26,0,0,0-2.3-2.3A2.33,2.33,0,0,0,12,9.5a2.33,2.33,0,0,0,2.3,2.3,2.27,2.27,0,0,0,1.6-.6l2.5,1.5a3.42,3.42,0,0,0-.4,1.8,4,4,0,0,0,3.6,4v9.1a2.26,2.26,0,0,0-1.8,2.2,2.33,2.33,0,0,0,2.3,2.3,2.28,2.28,0,0,0,.5-4.5V18.5a4.09,4.09,0,0,0,3.6-4,5.84,5.84,0,0,0-.4-1.8l2.5-1.4a2,2,0,0,0,1.5.6,2.3,2.3,0,1,0-.1-4.6ZM14.3,10.8a1.3,1.3,0,1,1,1.3-1.3A1.32,1.32,0,0,1,14.3,10.8Zm9,18.9A1.3,1.3,0,1,1,22,28.4,1.32,1.32,0,0,1,23.3,29.7ZM22.1,17.5a3.1,3.1,0,1,1,3.1-3.1A3.18,3.18,0,0,1,22.1,17.5Zm7.6-6.7A1.3,1.3,0,1,1,31,9.5,1.32,1.32,0,0,1,29.7,10.8Z"/><path class="cls-1" d="M23.4,12.5a.47.47,0,0,0-.5.5v1.5L21,12.6c-.1-.1-.4-.2-.5-.1a.85.85,0,0,0-.3.5v2.7a.5.5,0,0,0,1,0V14.3l1.9,1.9c.1.1.2.1.4.1h.2a.55.55,0,0,0,.3-.5V13A.63.63,0,0,0,23.4,12.5Z"/></g></g></svg>