<svg xmlns="http://www.w3.org/2000/svg" viewBox="0 0 32.12 32.03"><defs><style>.cls-1{fill:#fdfefe;}</style></defs><title>IB_CT_Icon_WhiteChlorine</title><g id="Layer_2" data-name="Layer 2"><g id="Layer_1-2" data-name="Layer 1"><path class="cls-1" d="M3.11,2.43a3.63,3.63,0,0,0,2.6-1.1,3.41,3.41,0,0,0,2.5,1.1,3.81,3.81,0,0,0,2.6-1.1,3.63,3.63,0,0,0,2.6,1.1A3.63,3.63,0,0,0,16,1.33a3.63,3.63,0,0,0,2.6,1.1,3.63,3.63,0,0,0,2.6-1.1,3.63,3.63,0,0,0,2.6,1.1,3.63,3.63,0,0,0,2.6-1.1,3.25,3.25,0,0,0,2.5,1.1,3.66,3.66,0,0,0,3-1.6.62.62,0,0,0-.1-.7c-.3-.1-.6-.1-.7.2a2.75,2.75,0,0,1-2.2,1.2A2.5,2.5,0,0,1,26.71.32c0-.19-.2-.29-.4-.29a.52.52,0,0,0-.4.2,2.77,2.77,0,0,1-2.2,1.2,2.51,2.51,0,0,1-2.2-1.2c0-.1-.2-.2-.3-.2a.76.76,0,0,0-.4.2,2.77,2.77,0,0,1-2.2,1.2,2.51,2.51,0,0,1-2.2-1.2.47.47,0,0,0-.8,0,2.75,2.75,0,0,1-2.2,1.2,2.51,2.51,0,0,1-2.2-1.2c0-.1-.2-.2-.4-.2a.52.52,0,0,0-.4.2,2.5,2.5,0,0,1-2.2,1.19A2.34,2.34,0,0,1,6.11.23a.46.46,0,0,0-.8,0,2.5,2.5,0,0,1-2.2,1.19A2.65,2.65,0,0,1,.91.33C.81,0,.51,0,.21.13a.62.62,0,0,0-.1.7A3.68,3.68,0,0,0,3.11,2.43Z"/><path class="cls-1" d="M31.51,23.63a2.5,2.5,0,0,1-2.2-1.21.45.45,0,0,0-.6-.2q-.15,0-.3.3a2.65,2.65,0,0,1-1.9,1.1l-3.7-6.5a2.49,2.49,0,0,0,.8.1,3.63,3.63,0,0,0,2.6-1.1,3.62,3.62,0,0,0,5.6-.5A.5.5,0,0,0,31,15a2.75,2.75,0,0,1-2.2,1.2,2.51,2.51,0,0,1-2.2-1.2.52.52,0,0,0-.4-.2c-.2,0-.2.1-.3.21a2.77,2.77,0,0,1-2.2,1.2,2.87,2.87,0,0,1-1.8-.7L18.21,9l.3-.31.1.11.2.2a2.62,2.62,0,0,0,.5.3.35.35,0,0,1,.2.1,1.69,1.69,0,0,0,.5.2c.1,0,.1.1.2.1a2.2,2.2,0,0,0,.8.1h0a3.63,3.63,0,0,0,2.6-1.1,3.63,3.63,0,0,0,2.6,1.1h0a2.2,2.2,0,0,0,.8-.1c.1,0,.1,0,.2-.1s.4-.1.5-.2a.35.35,0,0,0,.2-.1c.2-.11.3-.2.5-.3l.2-.2.1-.11a3.64,3.64,0,0,0,2.6,1.11.5.5,0,0,0,0-1,2.51,2.51,0,0,1-2.2-1.2.5.5,0,0,0-.8,0c-.1.1-.1.2-.2.2s-.1.2-.2.3l-.2.2c-.1.1-.2.2-.3.2s-.1.1-.2.1-.2.1-.4.1h-.6A2.51,2.51,0,0,1,24,7.53a.52.52,0,0,0-.4-.2.76.76,0,0,0-.4.2h-.1a2.75,2.75,0,0,1-2.2,1.2h-.7a.76.76,0,0,1-.4-.2c-.1,0-.1,0-.2-.1s-.2-.1-.3-.2-.1-.1-.2-.1-.1-.2-.2-.2-.2-.2-.2-.3a.5.5,0,0,0-.8,0,.44.44,0,0,1-.1.5l-1.3-2.3a.54.54,0,0,0-.4-.3c-.2,0-.3.09-.4.3l-1.3,2.3a1,1,0,0,1-.4-.5.47.47,0,0,0-.8,0A2.75,2.75,0,0,1,11,8.83a2.51,2.51,0,0,1-2.2-1.2.67.67,0,0,0-1,0,2.48,2.48,0,0,1-2.1,1.21,2.52,2.52,0,0,1-2.2-1.21.47.47,0,0,0-.8,0A2.52,2.52,0,0,1,.51,8.83a.5.5,0,1,0,0,1,3.6,3.6,0,0,0,2.6-1.11,3.64,3.64,0,0,0,2.6,1.11,3.6,3.6,0,0,0,2.6-1.11,3.64,3.64,0,0,0,2.6,1.11,3.6,3.6,0,0,0,2.6-1.11l.3.31L10,15.53a2.41,2.41,0,0,1-1.8.7A2.51,2.51,0,0,1,6,15a.47.47,0,0,0-.8,0A2.75,2.75,0,0,1,3,16.23,2.51,2.51,0,0,1,.81,15a.49.49,0,0,0-.7-.1.85.85,0,0,0,0,.7,3.62,3.62,0,0,0,5.6.5,3.63,3.63,0,0,0,2.6,1.1,2,2,0,0,0,.8-.1l-3.7,6.5a2.87,2.87,0,0,1-1.9-1.1.47.47,0,0,0-.8,0,2.75,2.75,0,0,1-2.2,1.2.5.5,0,0,0,0,1,3.63,3.63,0,0,0,2.6-1.1,4.37,4.37,0,0,0,1.7,1l-.4.7a.45.45,0,0,0,0,.5.54.54,0,0,0,.4.3h22.3c.2,0,.3-.1.4-.3a.45.45,0,0,0,0-.5l-.4-.7a4.1,4.1,0,0,0,1.8-1,3.63,3.63,0,0,0,2.6,1.1.47.47,0,0,0,.5-.5C32,23.82,31.81,23.63,31.51,23.63ZM5.71,24.92l.3-.39c.1-.11.1-.21.2-.3l4.6-8.1h0c.1-.1.1-.1.1-.2L16,7.12l5.1,8.8a.35.35,0,0,0,.1.21h0l5.1,8.8Z"/><path class="cls-1" d="M31.11,29.82A2.73,2.73,0,0,1,28.91,31a2.5,2.5,0,0,1-2.2-1.21.5.5,0,0,0-.8,0A2.73,2.73,0,0,1,23.71,31a2.5,2.5,0,0,1-2.2-1.21.5.5,0,0,0-.8,0A2.73,2.73,0,0,1,18.51,31a2.5,2.5,0,0,1-2.2-1.21.48.48,0,0,0-.8,0A2.73,2.73,0,0,1,13.31,31a2.5,2.5,0,0,1-2.2-1.21.5.5,0,0,0-.8,0A2.24,2.24,0,0,1,8.21,31,2.5,2.5,0,0,1,6,29.82a.5.5,0,0,0-.8,0A2.24,2.24,0,0,1,3.11,31a2.5,2.5,0,0,1-2.2-1.21.5.5,0,0,0-.7-.1.49.49,0,0,0-.1.7,3.67,3.67,0,0,0,3,1.61,3.6,3.6,0,0,0,2.6-1.11A3.38,3.38,0,0,0,8.21,32a3.6,3.6,0,0,0,2.6-1.11,3.6,3.6,0,0,0,5.2,0,3.6,3.6,0,0,0,5.2,0,3.6,3.6,0,0,0,5.2,0A3.6,3.6,0,0,0,29,32a3.67,3.67,0,0,0,3-1.61.49.49,0,0,0-.1-.7C31.51,29.63,31.21,29.63,31.11,29.82Z"/><path class="cls-1" d="M15.41,17.82a.47.47,0,0,0,.7,0,.48.48,0,0,0,0-.7,2.3,2.3,0,0,0-3.4,0,2.61,2.61,0,0,0,0,3.5,2.41,2.41,0,0,0,3.4,0,.49.49,0,0,0-.7-.7,1.34,1.34,0,0,1-2,0,1.45,1.45,0,0,1,0-2.1A1.35,1.35,0,0,1,15.41,17.82Z"/><path class="cls-1" d="M19.61,20.23h-1.8v-3.3a.5.5,0,0,0-1,0v3.8a.47.47,0,0,0,.5.5h2.2a.47.47,0,0,0,.5-.5C20,20.43,19.91,20.23,19.61,20.23Z"/></g></g></svg>