<?xml version="1.0" encoding="utf-8" ?>
<!-- Generator: Adobe Illustrator 21.0.0, SVG Export Plug-In . SVG Version: 6.00 Build 0)  -->
<svg
  version="1.0"
  id="Laag_1"
  xmlns="http://www.w3.org/2000/svg"
  xmlns:xlink="http://www.w3.org/1999/xlink"
  x="0px"
  y="0px"
  viewBox="0 0 32 32"
  style="enable-background:new 0 0 32 32;"
  xml:space="preserve"
>
<style type="text/css">
	.st0{fill:#0e56c2;}
</style>
<g>
	<path
      class="st0"
      d="M26.1,6.8c-0.1-0.1-0.2-0.2-0.4-0.2c-0.1,0-0.3,0.1-0.4,0.2c-1.4,1.6-2.6,3-3.2,3.7c-0.9-1.4-3.2-5-5.8-7.8
		c-0.1-0.1-0.2-0.2-0.4-0.2h-0.1c-0.1,0-0.3,0.1-0.4,0.1c-2.9,2.9-5,6.3-5.8,7.8C9.2,9.8,8.4,8.6,7.2,6.8C7.1,6.7,6.9,6.6,6.8,6.6
		c-0.2,0-0.3,0-0.4,0.1C4.9,8.3,0.1,13.7,0,20.7c0,0.3-0.5,7.8,4.3,11.2C4.5,32.1,4.8,32,5,31.8c0.2-0.2,0.1-0.5-0.1-0.7
		C0.6,28,1,21,1,20.7C1.1,14.6,5,9.8,6.7,7.9c1.8,2.6,2.7,3.7,2.7,3.8c0.1,0.1,0.3,0.2,0.4,0.2c0.2,0,0.3-0.1,0.4-0.3
		c0,0,2.3-4.4,5.7-7.9c3.1,3.4,5.7,7.9,5.8,7.9c0.1,0.1,0.2,0.2,0.4,0.2c0.2,0,0.3-0.1,0.4-0.2c0,0,1.4-1.8,3.3-3.9
		c2.5,2.8,5.1,7.5,5.2,12.9c0,4-1.9,8.9-4.1,10.4c-0.2,0.2-0.3,0.5-0.1,0.7c0.1,0.1,0.3,0.2,0.4,0.2c0.1,0,0.2,0,0.3-0.1
		C30.2,30,32,24.6,32,20.7C31.9,14.8,28.9,9.6,26.1,6.8z"
    />
	<path
      class="st0"
      d="M27.3,27.2l-0.7-1.7l0.6-1.6c0-0.1,0-0.3,0-0.4c0,0,0,0,0,0c0,0,0,0,0,0c0,0,0,0,0-0.1l-1.8-2.1
		C25.2,21.1,25,21,24.9,21h-2.7c-0.1,0-0.1,0-0.2,0L17.7,23h-1.9l1.5-0.4c0.1,0,0.1,0,0.2-0.1l3.3-2.4c0.1-0.1,0.2-0.2,0.2-0.4
		c0-0.2-0.1-0.3-0.2-0.4L17,16.1c-0.2-0.1-0.4-0.2-0.6-0.1l-7,3.9c-0.1,0.1-0.2,0.2-0.2,0.3l-1,2.7l-2.5,1.3
		c-0.1,0.1-0.2,0.2-0.3,0.3l-0.7,2.7c0,0,0,0,0,0.1c0,0,0,0,0,0c0,0,0,0.1,0,0.1l1,4.1C5.7,31.8,5.9,32,6.2,32h19
		c0.2,0,0.4-0.1,0.5-0.3l1.6-4.1C27.3,27.5,27.3,27.3,27.3,27.2z M25.5,25.7l0.4,1l-2.7-0.6l2.4-1.4l-0.2,0.5
		C25.5,25.4,25.5,25.6,25.5,25.7z M6,28.4l4.8,2.6H6.6L6,28.4z M24.8,31h-12l-7-3.8L6.4,25l2.5-1.2c0.1-0.1,0.2-0.2,0.3-0.3l1-2.7
		l6.5-3.7l3,2.6L17,21.7L11.4,23c-0.3,0.1-0.4,0.3-0.4,0.6c0,0.3,0.2,0.5,0.5,0.5h6.3c0.1,0,0.1,0,0.2,0l4.3-1.9h2.3l1.2,1.5
		L21.6,26c-0.2,0.1-0.3,0.3-0.2,0.5c0,0.2,0.2,0.4,0.4,0.4l4.3,0.9L24.8,31z"
    />
	<circle class="st0" cx="4.6" cy="5" r="0.5" />
	<circle class="st0" cx="8.5" cy="5" r="0.5" />
	<circle class="st0" cx="2.6" cy="2.8" r="0.5" />
	<circle class="st0" cx="6.5" cy="2.8" r="0.5" />
	<circle class="st0" cx="10.4" cy="2.8" r="0.5" />
	<circle class="st0" cx="0.5" cy="0.5" r="0.5" />
	<circle class="st0" cx="4.4" cy="0.5" r="0.5" />
	<circle class="st0" cx="8.3" cy="0.5" r="0.5" />
	<circle class="st0" cx="12.2" cy="0.5" r="0.5" />
	<circle class="st0" cx="23.8" cy="5" r="0.5" />
	<circle class="st0" cx="27.7" cy="5" r="0.5" />
	<circle class="st0" cx="21.9" cy="2.8" r="0.5" />
	<circle class="st0" cx="25.8" cy="2.8" r="0.5" />
	<circle class="st0" cx="29.7" cy="2.8" r="0.5" />
	<circle class="st0" cx="19.8" cy="0.5" r="0.5" />
	<circle class="st0" cx="16" cy="0.5" r="0.5" />
	<circle class="st0" cx="23.7" cy="0.5" r="0.5" />
	<circle class="st0" cx="27.6" cy="0.5" r="0.5" />
	<circle class="st0" cx="31.5" cy="0.5" r="0.5" />
</g>
</svg>
