<?xml version="1.0" encoding="utf-8" ?>
<!-- Generator: Adobe Illustrator 21.0.0, SVG Export Plug-In . SVG Version: 6.00 Build 0)  -->
<svg
  version="1.0"
  id="Laag_1"
  xmlns="http://www.w3.org/2000/svg"
  xmlns:xlink="http://www.w3.org/1999/xlink"
  x="0px"
  y="0px"
  viewBox="0 0 32 32"
  style="enable-background:new 0 0 32 32;"
  xml:space="preserve"
>
<style type="text/css">
	.st0{fill:#0e56c2;}
</style>
<g>
	<path
      class="st0"
      d="M15.8,25.7c1.3,0,2.4-1.1,2.4-2.4c0-0.8-0.6-2.1-1.4-3.7c-0.2-0.5-0.5-0.9-0.5-1.1c-0.1-0.2-0.3-0.3-0.5-0.3
		c-0.2,0-0.4,0.1-0.5,0.3c-0.1,0.2-0.3,0.5-0.5,1c-0.8,1.6-1.5,3-1.5,3.8C13.3,24.7,14.4,25.7,15.8,25.7z M15.7,20
		C15.7,20,15.7,19.9,15.7,20c0.1,0,0.1,0.1,0.1,0.1c0.5,1,1.3,2.6,1.3,3.2c0,0.8-0.6,1.4-1.4,1.4s-1.4-0.6-1.4-1.4
		C14.3,22.7,15.2,20.9,15.7,20z"
    />
	<path
      class="st0"
      d="M31.7,28.7l-6.9-13.8c0,0,0,0,0,0L18,1.1C17.6,0.4,16.8,0,16,0c-0.8,0-1.6,0.4-2,1.1L0.3,28.6
		c-0.4,0.7-0.4,1.6,0,2.2c0.4,0.7,1.2,1.1,2,1.1h27.5c0.8,0,1.6-0.4,2-1.1C32.1,30.2,32.1,29.3,31.7,28.7z M18.5,9.5l2.7,2.9l-6.3,0
		c0,0,0,0,0,0c0,0,0,0-0.1,0c0,0-0.1,0-0.1,0c0,0-0.1,0-0.1,0.1c0,0,0,0-0.1,0c0,0,0,0,0,0c-0.1,0.1-0.3,0.1-0.5,0
		C14,12.4,14,12.3,14,12.2s0-0.2,0.1-0.2l4-3.7c0.1-0.1,0.3-0.1,0.5,0c0.1,0.1,0.1,0.3,0,0.5C18.4,9,18.4,9.3,18.5,9.5z M22.1,13.4
		l1.8,1.9l4.3,8.7c-0.9,0.6-2,0.5-2.7-0.4L16,13.4L22.1,13.4z M14.9,1.6C15.1,1.2,15.5,1,16,1s0.9,0.2,1.1,0.6l5.2,10.5l-2.8-3
		c0.2-0.5,0.2-1.1-0.2-1.5c-0.2-0.3-0.6-0.4-0.9-0.4c-0.3,0-0.7,0.1-1,0.4l-4,3.7c-0.5,0.5-0.6,1.3-0.1,1.9c0.4,0.4,1,0.5,1.4,0.3
		l10,10.8c0.6,0.7,1.5,1,2.3,1c0.5,0,1.1-0.2,1.6-0.5l0.8,1.6h-10c-0.2,0-0.4,0.1-0.4,0.3c0,0.1-0.9,1.6-3.3,1.6
		c-2.5,0-3.3-1.5-3.4-1.6c-0.1-0.2-0.3-0.3-0.4-0.3H2.5L14.9,1.6z M30.8,30.4c-0.2,0.4-0.6,0.6-1.1,0.6H2.3c-0.5,0-0.9-0.2-1.1-0.6
		c-0.2-0.4-0.2-0.9,0-1.3L2,27.5h9.7c0.4,0.6,1.6,1.9,4.1,1.9c2.4,0,3.6-1.3,4-1.9H30l0.8,1.6C31.1,29.5,31.1,30,30.8,30.4z"
    />
</g>
</svg>
