<svg xmlns="http://www.w3.org/2000/svg" viewBox="0 0 32.01 32.01"><defs><style>.cls-1{fill:#fdfefe;}</style></defs><title>IB_CT_Icon_WhiteCoalGasification</title><g id="Layer_2" data-name="Layer 2"><g id="Layer_1-2" data-name="Layer 1"><path class="cls-1" d="M26.11,6.8a.52.52,0,0,0-.4-.2.76.76,0,0,0-.4.2c-1.4,1.6-2.6,3-3.2,3.7a58,58,0,0,0-5.8-7.8.52.52,0,0,0-.4-.2h-.1c-.1,0-.3.1-.4.1a36,36,0,0,0-5.8,7.8L7.21,6.8a.76.76,0,0,0-.4-.2c-.2,0-.3,0-.4.1-1.5,1.6-6.3,7-6.4,14,0,.3-.5,7.8,4.3,11.2a.5.5,0,0,0,.6-.8C.61,28,1,21,1,20.7c.1-6.1,4-10.9,5.7-12.8,1.8,2.6,2.7,3.7,2.7,3.8a.76.76,0,0,0,.4.2c.2,0,.3-.1.4-.3a38.61,38.61,0,0,1,5.7-7.9,69.52,69.52,0,0,1,5.8,7.9.5.5,0,0,0,.8,0s1.4-1.8,3.3-3.9A20.64,20.64,0,0,1,31,20.6c0,4-1.9,8.9-4.1,10.4a.49.49,0,0,0-.1.7.76.76,0,0,0,.4.2.37.37,0,0,0,.3-.1C30.21,30,32,24.6,32,20.7A21.1,21.1,0,0,0,26.11,6.8Z"/><path class="cls-1" d="M27.31,27.2l-.7-1.7.6-1.6v-.4h0v-.1l-1.8-2.1a.91.91,0,0,0-.5-.3H22l-4.3,2h-1.9l1.5-.4c.1,0,.1,0,.2-.1l3.3-2.4a.5.5,0,0,0,0-.8L17,16.1a.66.66,0,0,0-.6-.1l-7,3.9c-.1.1-.2.2-.2.3l-1,2.7-2.5,1.3-.3.3-.7,2.7v.1h0v.1l1,4.1a.47.47,0,0,0,.5.5h19a.55.55,0,0,0,.5-.3l1.6-4.1Zm-1.8-1.5.4,1-2.7-.6,2.4-1.4-.2.5A1.09,1.09,0,0,1,25.51,25.7ZM6,28.4l4.8,2.6H6.61ZM24.81,31h-12l-7-3.8.6-2.2,2.5-1.2.3-.3,1-2.7,6.5-3.7,3,2.6-2.7,2L11.41,23a.55.55,0,0,0-.4.6.47.47,0,0,0,.5.5H18l4.3-1.9h2.3l1.2,1.5L21.61,26a.37.37,0,0,0-.2.5.43.43,0,0,0,.4.4l4.3.9Z"/><circle class="cls-1" cx="4.61" cy="5" r="0.5"/><circle class="cls-1" cx="8.51" cy="5" r="0.5"/><circle class="cls-1" cx="2.61" cy="2.8" r="0.5"/><circle class="cls-1" cx="6.51" cy="2.8" r="0.5"/><circle class="cls-1" cx="10.41" cy="2.8" r="0.5"/><circle class="cls-1" cx="0.51" cy="0.5" r="0.5"/><circle class="cls-1" cx="4.41" cy="0.5" r="0.5"/><circle class="cls-1" cx="8.31" cy="0.5" r="0.5"/><circle class="cls-1" cx="12.21" cy="0.5" r="0.5"/><circle class="cls-1" cx="23.81" cy="5" r="0.5"/><circle class="cls-1" cx="27.71" cy="5" r="0.5"/><circle class="cls-1" cx="21.91" cy="2.8" r="0.5"/><circle class="cls-1" cx="25.81" cy="2.8" r="0.5"/><circle class="cls-1" cx="29.71" cy="2.8" r="0.5"/><circle class="cls-1" cx="19.81" cy="0.5" r="0.5"/><circle class="cls-1" cx="16.01" cy="0.5" r="0.5"/><circle class="cls-1" cx="23.71" cy="0.5" r="0.5"/><circle class="cls-1" cx="27.61" cy="0.5" r="0.5"/><circle class="cls-1" cx="31.51" cy="0.5" r="0.5"/></g></g></svg>