<?xml version="1.0" encoding="utf-8" ?>
<!-- Generator: Adobe Illustrator 21.0.0, SVG Export Plug-In . SVG Version: 6.00 Build 0)  -->
<svg
  version="1.0"
  id="Laag_1"
  xmlns="http://www.w3.org/2000/svg"
  xmlns:xlink="http://www.w3.org/1999/xlink"
  x="0px"
  y="0px"
  viewBox="0 0 32 32"
  style="enable-background:new 0 0 32 32;"
  xml:space="preserve"
>
<style type="text/css">
	.st0{fill:#0e56c2;}
</style>
<g>
	<circle class="st0" cx="20.4" cy="0.5" r="0.5" />
	<circle class="st0" cx="17.2" cy="0.5" r="0.5" />
	<circle class="st0" cx="14" cy="0.5" r="0.5" />
	<circle class="st0" cx="30" cy="0.5" r="0.5" />
	<circle class="st0" cx="26.8" cy="0.5" r="0.5" />
	<circle class="st0" cx="23.6" cy="0.5" r="0.5" />
	<circle class="st0" cx="20.4" cy="4.2" r="0.5" />
	<circle class="st0" cx="18.9" cy="2.4" r="0.5" />
	<circle class="st0" cx="15.7" cy="2.4" r="0.5" />
	<circle class="st0" cx="28.4" cy="2.4" r="0.5" />
	<circle class="st0" cx="31.5" cy="2.4" r="0.5" />
	<circle class="st0" cx="25.2" cy="2.4" r="0.5" />
	<circle class="st0" cx="22" cy="2.4" r="0.5" />
	<circle class="st0" cx="22" cy="6.1" r="0.5" />
	<path
      class="st0"
      d="M29.3,15.8V8.4h2.2c0.3,0,0.5-0.2,0.5-0.5s-0.2-0.5-0.5-0.5h-2.2V6.5c0.6-0.2,1-0.7,1-1.4
		c0-0.8-0.6-1.4-1.4-1.4h-4.7c-0.8,0-1.4,0.6-1.4,1.4c0,0.7,0.5,1.2,1.1,1.4v0.9h-2.9c-1.8,0-3.2-1.4-3.2-3.2c0,0,0,0,0,0
		c0,0,0,0,0,0c0-0.3-0.2-0.5-0.5-0.5H15c-1.8,0-3.2-1.4-3.2-3.2c0-0.3-0.2-0.5-0.5-0.5s-0.5,0.2-0.5,0.5c0,2.3,1.9,4.2,4.2,4.2h1.7
		c0.2,2.1,2,3.7,4.2,3.7h2.9v7.3c-1.7,1-2.8,2.8-2.8,4.8v2.2h-2.5v-6.8c0-2-1.5-3.7-3.5-3.9V9c0-1.1-0.9-2-2-2H7.9
		C7.7,5,6,3.5,4,3.5c-2.2,0-4,1.8-4,4v24C0,31.8,0.2,32,0.5,32S1,31.8,1,31.5v-3h6v3C7,31.8,7.2,32,7.5,32S8,31.8,8,31.5V17.2h2.5
		v14.3c0,0.3,0.2,0.5,0.5,0.5s0.5-0.2,0.5-0.5v-3h6v3c0,0.3,0.2,0.5,0.5,0.5s0.5-0.2,0.5-0.5v-7.8H21v7.8c0,0.3,0.2,0.5,0.5,0.5
		s0.5-0.2,0.5-0.5v-3h9v3c0,0.3,0.2,0.5,0.5,0.5s0.5-0.2,0.5-0.5v-11C32,18.5,31,16.8,29.3,15.8z M1,27.5v-20c0-1.7,1.3-3,3-3
		s3,1.3,3,3v20H1z M8,16.2V8h5c0.6,0,1,0.4,1,1v3c-2,0.2-3.5,1.9-3.5,3.9v0.2H8z M11.5,27.5V15.9c0-1.7,1.3-3,3-3c1.7,0,3,1.3,3,3
		v11.6H11.5z M31,27.5h-9v-7c0-1.7,1-3.2,2.5-4c0,0,0,0,0,0c0,0,0.1,0,0.1-0.1c0,0,0,0,0-0.1c0,0,0-0.1,0.1-0.1c0,0,0-0.1,0-0.1
		c0,0,0,0,0-0.1v-10c0-0.3-0.2-0.5-0.5-0.5h-0.1c-0.2,0-0.4-0.2-0.4-0.4s0.2-0.4,0.4-0.4h4.7c0.2,0,0.4,0.2,0.4,0.4
		s-0.2,0.4-0.4,0.4h-0.1c-0.3,0-0.5,0.2-0.5,0.5V16c0,0,0,0,0,0v0c0,0,0,0,0,0c0,0,0,0.1,0,0.1c0,0,0,0.1,0,0.1c0,0,0,0.1,0.1,0.1
		c0,0,0.1,0.1,0.1,0.1c0,0,0,0,0,0c1.5,0.8,2.5,2.3,2.5,4V27.5z"
    />
	<path
      class="st0"
      d="M27.2,15.4h-1.4c-0.3,0-0.5,0.2-0.5,0.5s0.2,0.5,0.5,0.5h1.4c0.3,0,0.5-0.2,0.5-0.5S27.5,15.4,27.2,15.4z"
    />
</g>
</svg>
