<?xml version="1.0" encoding="utf-8" ?>
<!-- Generator: Adobe Illustrator 21.0.0, SVG Export Plug-In . SVG Version: 6.00 Build 0)  -->
<svg
  version="1.0"
  id="Laag_1"
  xmlns="http://www.w3.org/2000/svg"
  xmlns:xlink="http://www.w3.org/1999/xlink"
  x="0px"
  y="0px"
  viewBox="0 0 32 32"
  style="enable-background:new 0 0 32 32;"
  xml:space="preserve"
>
<style type="text/css">
	.st0{fill:#0e56c2;}
</style>
<g>
	<path
      class="st0"
      d="M31.4,28.9c-1-1.1-6-6-7-7.1l4.6-7.3c0,0,0,0,0,0c0,0,0-0.1,0-0.1c0,0,0-0.1,0-0.1c0,0,0,0,0,0c0,0,0,0,0,0
		c0,0,0-0.1,0-0.1c0,0,0-0.1,0-0.1c0,0,0-0.1-0.1-0.1c0,0,0,0-0.1-0.1c0,0,0,0,0,0l-5.3-4.5c-0.1-0.1-0.2-0.2-0.4-0.2c0,0,0,0,0,0
		c0,0,0,0,0,0h-1.9l-2.9-1.7c-0.2-0.1-0.3-0.1-0.5,0L15.2,9l-3,0.4c-0.9-1-1.9-2.5-2.2-3.4c-0.1-0.4-0.1-0.6,0.2-0.7
		c2.8-1.9,6-3,9.4-3.1c0.4,0,0.9-0.2,1.1-0.6c0.2-0.3,0.2-0.7,0-1C20.5,0.3,20.2,0,19.4,0c-4.4,0-8.7,1.5-12.2,4.3
		C6.4,3.9,5.4,4,4.8,4.6C4.1,5.3,4,6.3,4.4,7.1C1.5,10.6,0,15,0,19.6c0,0.7,0.5,1.1,1.1,1.1c0,0,0,0,0,0c0.6,0,1-0.4,1-0.9
		c0.2-3.4,1.2-6.3,3.1-9.2c0,0,0.5-0.8,0.9-0.6c0.6,0.2,2.1,1.6,3.2,2.7l-0.5,0.3c-0.1,0.1-0.2,0.2-0.2,0.3l-0.6,1.7
		c0,0.1,0,0.2,0,0.3l1.8,7.5c0,0,0,0,0,0.1c0,0,0,0.1,0,0.1c0,0,0,0,0.1,0.1c0,0,0,0,0.1,0.1c0,0,0,0,0,0c0,0,0,0,0,0l4.8,2.7
		c0.1,0,0.2,0.1,0.2,0.1c0.1,0,0.2,0,0.3-0.1l1.9-1.2l4.3-0.6l7.5,7.4c0.5,0.5,1,0.7,1.4,0.7c0.4,0,0.8-0.2,1.1-0.4
		C32.1,31,32.3,29.9,31.4,28.9z M17.1,23.5l-4.6-3.7l1.8-4.3l8.7-2.9l1.7,2c0.1,0.1,0.2,0.2,0.4,0.2l2.5,0l-5,8L17.1,23.5z
		 M21.1,10.2h1.5v1.5L14,14.5l-3.2-1.9l1.4-2.1l3.3,1c0,0,0.1,0,0.1,0c0.1,0,0.1,0,0.2,0l3.4-1.4H21.1z M23.6,10.8l3.5,3l-1.8,0
		l-1.7-1.9V10.8z M13.3,15.3l-1.2,3.1l-1.2-4.6L13.3,15.3z M15.4,10c0.1,0,0.1,0,0.2-0.1l2.5-1.4l1.1,0.7h-0.1c-0.1,0-0.1,0-0.2,0
		l-3.3,1.3l-1.3-0.4L15.4,10z M4.3,10.1c-1.9,3-3,6.1-3.2,9.6c0,0-0.1,0-0.1,0c0,0,0,0,0-0.1c0-4.5,1.5-8.8,4.4-12.2
		c0.2-0.2,0.2-0.5,0-0.7C5,6.4,5.1,5.7,5.5,5.3C5.7,5.1,5.9,5,6.2,5c0.2,0,0.5,0.1,0.7,0.3c0.2,0.2,0.5,0.2,0.6,0
		C10.8,2.5,14.9,1,19.2,1c0,0,0.1,0,0.1,0c0,0,0,0,0.1,0c0.2,0,0.3,0.1,0.4,0c0,0-0.1,0.1-0.2,0.1c0,0,0,0,0,0
		c-3.6,0.1-7,1.3-9.9,3.3C9,4.9,8.8,5.5,9,6.3C9.4,7.4,10.5,9,11.4,10l-0.8,1.2L10,12c-0.9-0.9-2.7-2.6-3.6-3
		C5.4,8.7,4.6,9.6,4.3,10.1z M9.4,13.7l0.4-0.2l1.7,6.4l-1,1.5l-1.5-6.3L9.4,13.7z M15,24.7l-4-2.3l1.2-1.7l4,3.3L15,24.7z
		 M30.8,30.8c-0.2,0.2-0.7,0.3-1.2-0.2l-7-6.9l0.3,0c0.1,0,0.3-0.1,0.3-0.2l0.5-0.8c1.3,1.3,5.9,6,6.9,6.9
		C31.1,30.1,31.1,30.6,30.8,30.8z"
    />
	<path
      class="st0"
      d="M20.7,27.2c-0.5,0.2-0.6,0.8-0.4,1.3c0.2,0.5,0.8,0.7,1.3,0.4c0.5-0.2,0.6-0.8,0.4-1.3
		C21.7,27.2,21.2,27,20.7,27.2z"
    />
	<path
      class="st0"
      d="M17.4,26.1c-0.5,0.2-0.6,0.8-0.4,1.3c0.2,0.5,0.8,0.7,1.3,0.4c0.5-0.2,0.6-0.8,0.4-1.3
		C18.5,26.1,17.9,25.9,17.4,26.1z"
    />
</g>
</svg>
