<svg xmlns="http://www.w3.org/2000/svg" viewBox="0 0 32 32"><defs><style>.cls-1{fill:#fdfefe;}</style></defs><title>IB_CT_Icon_WhitePower</title><g id="Layer_2" data-name="Layer 2"><g id="Layer_1-2" data-name="Layer 1"><path class="cls-1" d="M.47,32a.37.37,0,0,1-.3-.1.47.47,0,0,1-.1-.6l8.6-13.9H2.47c-.2,0-.4-.1-.4-.3a.45.45,0,0,1,0-.5L12.37.2a.76.76,0,0,1,.5-.2h18.6a.55.55,0,0,1,.5.3c.1.2,0,.4-.2.6L18.77,11h7.1a.55.55,0,0,1,.5.3c.1.2,0,.4-.2.6L.77,31.9A.37.37,0,0,1,.47,32Zm2.9-15.7h6.2c.2,0,.4.1.4.3a.45.45,0,0,1,0,.5L2.37,29.4l22-17.3h-7.1a.55.55,0,0,1-.5-.3c-.1-.2,0-.4.2-.6L30,1H13.07Z"/></g></g></svg>