<svg
  version="1.1"
  id="圖層_1"
  xmlns="http://www.w3.org/2000/svg"
  xmlns:xlink="http://www.w3.org/1999/xlink"
  x="0px"
  y="0px"
  width="747.075px"
  height="647.815px"
  viewBox="0 0 747.075 647.815"
  enable-background="new 0 0 747.075 647.815"
  xml:space="preserve"
>
<g>
	<g>
		<g>
			<g>
				<path
            fill="#ffffff"
            d="M407.104,571.984c-1.857-1.444-3.5-3.14-4.892-5.022C403.789,568.678,405.432,570.347,407.104,571.984z"
          />
				<path
            fill="#ffffff"
            d="M443.722,535.849c-1.589-1.518-3.125-3.069-4.595-4.704
					C440.854,532.513,442.383,534.086,443.722,535.849z"
          />
				<path
            fill="#ffffff"
            d="M639.922,473.798c0,75.726-61.392,137.115-137.125,137.115c-37.232,0-70.977-14.829-95.693-38.929
					c-1.671-1.637-3.315-3.306-4.892-5.022c-3.224-4.324-5.13-9.649-5.13-15.454c0-14.338,11.622-25.956,25.96-25.956
					c6.082,0,11.656,2.091,16.085,5.593c1.47,1.635,3.005,3.186,4.595,4.704c15.374,14.644,36.167,23.658,59.075,23.658
					c47.317,0,85.69-38.373,85.69-85.709c0-34.541-20.454-64.289-49.904-77.863l38.266-37.549
					C614.774,382.775,639.922,425.352,639.922,473.798z"
          />
			</g>
			<polygon
          fill="#ffffff"
          points="649.649,264.5 558.946,264.5 558.93,264.518 406.894,264.518 406.894,287.74 535.108,287.74 
				535.041,287.818 535.108,287.818 493.639,328.384 481.948,339.817 527.026,384.903 584.646,328.313 			"
        />
			<linearGradient
          id="SVGID_1_"
          gradientUnits="userSpaceOnUse"
          x1="541.3965"
          y1="562.2876"
          x2="550.6949"
          y2="372.4454"
        >
				<stop offset="0" style="stop-color:#009FDE" />
				<stop offset="1" style="stop-color:#187FC4;stop-opacity:0" />
			</linearGradient>
			<path
          fill="url(#SVGID_1_)"
          d="M576.848,358.386l-38.089,37.377c36.403,18.378,61.386,56.086,61.386,99.645
				c0,61.619-49.96,111.579-111.581,111.579c-15.352,0-29.978-3.104-43.29-8.714c17.491,8.104,36.969,12.639,57.521,12.639
				c75.733,0,137.125-61.389,137.125-137.115C639.922,425.352,614.774,382.775,576.848,358.386z"
        />
			<linearGradient
          id="SVGID_2_"
          gradientUnits="userSpaceOnUse"
          x1="452.8784"
          y1="531.4463"
          x2="584.6053"
          y2="476.4309"
        >
				<stop offset="0" style="stop-color:#009FDE" />
				<stop offset="1" style="stop-color:#187FC4;stop-opacity:0" />
			</linearGradient>
			<path
          fill="url(#SVGID_2_)"
          d="M600.145,495.409c0-43.559-24.983-81.267-61.386-99.645l-0.177,0.171
				c29.451,13.574,49.904,43.322,49.904,77.863c0,47.336-38.373,85.709-85.69,85.709c-22.907,0-43.701-9.014-59.075-23.658
				c-1.589-1.518-3.125-3.069-4.595-4.704c-4.43-3.501-10.004-5.593-16.085-5.593c-14.338,0-25.96,11.618-25.96,25.956
				c0,4.124,0.977,7.993,2.69,11.446c3.686,4.841,7.767,9.36,12.179,13.53c9.656,8.555,20.523,15.764,32.309,21.338
				c0.009,0.006,0.021,0.009,0.031,0.015c0.323,0.153,0.659,0.285,0.984,0.436c13.312,5.611,27.938,8.714,43.29,8.714
				C550.185,606.988,600.145,557.027,600.145,495.409z"
        />
			<linearGradient
          id="SVGID_3_"
          gradientUnits="userSpaceOnUse"
          x1="599.4609"
          y1="276.1196"
          x2="404.8052"
          y2="276.1197"
        >
				<stop offset="0" style="stop-color:#009FDE" />
				<stop offset="1" style="stop-color:#187FC4;stop-opacity:0" />
			</linearGradient>
			<polygon
          fill="url(#SVGID_3_)"
          points="558.946,264.5 558.93,264.518 406.894,264.518 406.894,287.74 533.841,287.74 
				647.251,264.5 			"
        />
			<linearGradient
          id="SVGID_4_"
          gradientUnits="userSpaceOnUse"
          x1="505.8662"
          y1="361.9995"
          x2="595.8713"
          y2="271.9944"
        >
				<stop offset="0" style="stop-color:#009FDE" />
				<stop offset="1" style="stop-color:#187FC4;stop-opacity:0" />
			</linearGradient>
			<polygon
          fill="url(#SVGID_4_)"
          points="533.841,287.74 535.108,287.74 535.041,287.818 535.108,287.818 493.639,328.384 
				481.948,339.817 527.026,384.903 584.646,328.313 649.649,264.5 647.251,264.5 			"
        />
			
				<linearGradient
          id="SVGID_5_"
          gradientUnits="userSpaceOnUse"
          x1="531.9517"
          y1="279.7783"
          x2="644.9028"
          y2="279.7783"
          gradientTransform="matrix(1 0.0022 -0.0022 1 1.9563 -4.2665)"
        >
				<stop offset="0" style="stop-color:#ffffff;stop-opacity:0" />
				<stop offset="0.2158" style="stop-color:#ffffff" />
				<stop offset="0.7947" style="stop-color:#ffffff;stop-opacity:0.6947" />
				<stop offset="1" style="stop-color:#FFFFFF;stop-opacity:0" />
			</linearGradient>
			<path
          fill="url(#SVGID_5_)"
          d="M535.5,290.219c-1.038,0-1.967-0.727-2.188-1.786c-0.246-1.211,0.532-2.395,1.743-2.643
				l108.525-22.353c1.222-0.239,2.396,0.535,2.641,1.743c0.249,1.211-0.526,2.395-1.74,2.646l-108.522,22.35
				C535.807,290.206,535.652,290.222,535.5,290.219z"
        />
			<linearGradient
          id="SVGID_6_"
          gradientUnits="userSpaceOnUse"
          x1="602.6353"
          y1="552.438"
          x2="531.8643"
          y2="515.244"
        >
				<stop offset="0" style="stop-color:#ffffff" />
				<stop offset="1" style="stop-color:#FFFFFF;stop-opacity:0" />
			</linearGradient>
			<path
          fill="url(#SVGID_6_)"
          d="M489.13,606.858c-15.316,0-30.18-2.992-44.191-8.897l-1.068-0.472
				c-0.022-0.013-0.043-0.019-0.064-0.031c-0.097-0.046-0.187-0.101-0.271-0.153c-1.067-0.711-1.355-2.158-0.644-3.226
				c0.656-0.987,1.932-1.306,2.969-0.791l0.963,0.423c13.35,5.63,27.612,8.5,42.306,8.5c60.237,0,109.253-49.016,109.253-109.255
				c0-41.277-22.822-78.506-59.598-97.309c-0.455-0.074-0.876-0.279-1.211-0.62c-0.9-0.917-0.976-2.299-0.059-3.201
				c0.708-0.699,1.972-1.036,2.851-0.589c38.653,19.508,62.666,58.485,62.666,101.718
				C603.034,555.757,551.934,606.858,489.13,606.858z"
        />
		</g>
	</g>
	<g>
		<defs>
			<path
          id="SVGID_7_"
          d="M516.561,398.155l-56.403-56.409l31.073-34.368h-98.708v-58.369h165.965l3.615-0.018h24.258
				c-6.91-123.896-109.541-222.239-235.162-222.239c-130.097,0-235.561,105.463-235.561,235.56
				c0,130.097,105.464,235.562,235.561,235.562c72.792,0,137.853-33.033,181.065-84.909l-20.955-9.646L516.561,398.155z"
        />
		</defs>
		<clipPath id="SVGID_8_">
			<use xlink:href="#SVGID_7_" overflow="visible" />
		</clipPath>
		<g clip-path="url(#SVGID_8_)">
			<path
          fill="#084F73"
          d="M359.155,49.404c-2.702-0.212-5.418-0.336-8.157-0.336c-2.736,0-5.453,0.124-8.155,0.336
				C228.94,53.697,137.91,147.335,137.91,262.289c0,114.955,91.04,208.597,204.951,212.883c2.697,0.206,5.408,0.331,8.138,0.331
				c2.732,0,5.443-0.125,8.138-0.331c113.907-4.287,204.953-97.929,204.953-212.883C564.088,147.335,473.053,53.697,359.155,49.404z
				 M350.998,411.318c-75.364,0-137.622-55.949-147.602-128.569c-0.446-6.738-0.694-13.557-0.694-20.461
				c0-6.908,0.249-13.73,0.694-20.468c9.98-72.62,72.238-128.567,147.602-128.567c75.36,0,137.617,55.948,147.596,128.567
				c0.447,6.738,0.696,13.56,0.696,20.468c0,6.904-0.249,13.723-0.696,20.461C488.615,355.369,426.358,411.318,350.998,411.318z"
        />
			<g>
				<linearGradient
            id="SVGID_9_"
            gradientUnits="userSpaceOnUse"
            x1="201.9639"
            y1="262.2852"
            x2="203.396"
            y2="262.2852"
          >
					<stop offset="0" style="stop-color:#ffffff" />
					<stop offset="1" style="stop-color:#ffffff;stop-opacity:0" />
				</linearGradient>
				<path
            fill="url(#SVGID_9_)"
            d="M203.396,241.82c-0.919,6.695-1.432,13.519-1.432,20.468c0,6.943,0.513,13.769,1.432,20.461
					c-0.446-6.738-0.694-13.557-0.694-20.461C202.702,255.38,202.95,248.558,203.396,241.82z"
          />
				<linearGradient
            id="SVGID_10_"
            gradientUnits="userSpaceOnUse"
            x1="498.5942"
            y1="262.2852"
            x2="500.0278"
            y2="262.2852"
          >
					<stop offset="0" style="stop-color:#ffffff" />
					<stop offset="1" style="stop-color:#ffffff;stop-opacity:0" />
				</linearGradient>
				<path
            fill="url(#SVGID_10_)"
            d="M498.594,282.75c0.922-6.692,1.434-13.518,1.434-20.461c0-6.949-0.512-13.773-1.434-20.468
					c0.447,6.738,0.696,13.56,0.696,20.468C499.29,269.192,499.042,276.012,498.594,282.75z"
          />
				<linearGradient
            id="SVGID_11_"
            gradientUnits="userSpaceOnUse"
            x1="461.6123"
            y1="43.5894"
            x2="461.6123"
            y2="478.4811"
          >
					<stop offset="0" style="stop-color:#0085C9;stop-opacity:0" />
					<stop offset="0.5" style="stop-color:#ffffff" />
					<stop offset="1" style="stop-color:#187FC4;stop-opacity:0" />
				</linearGradient>
				<path
            fill="url(#SVGID_11_)"
            d="M564.088,262.289c0-114.954-91.036-208.592-204.934-212.884
					c73.365,5.721,132.528,88.105,139.439,192.416c0.922,6.695,1.434,13.519,1.434,20.468c0,6.943-0.512,13.769-1.434,20.461
					c-6.911,104.318-66.086,186.713-139.458,192.422C473.042,470.885,564.088,377.243,564.088,262.289z"
          />
				<linearGradient
            id="SVGID_12_"
            gradientUnits="userSpaceOnUse"
            x1="240.3848"
            y1="43.5894"
            x2="240.3848"
            y2="478.4811"
          >
					<stop offset="0" style="stop-color:#0085C9;stop-opacity:0" />
					<stop offset="0.5" style="stop-color:#ffffff" />
					<stop offset="1" style="stop-color:#187FC4;stop-opacity:0" />
				</linearGradient>
				<path
            fill="url(#SVGID_12_)"
            d="M203.396,282.75c-0.919-6.692-1.432-13.518-1.432-20.461c0-6.949,0.513-13.773,1.432-20.468
					c6.915-104.311,66.083-186.695,139.447-192.416C228.94,53.697,137.91,147.335,137.91,262.289
					c0,114.955,91.04,208.597,204.951,212.883C269.489,469.462,210.311,387.068,203.396,282.75z"
          />
				<linearGradient
            id="SVGID_13_"
            gradientUnits="userSpaceOnUse"
            x1="342.8604"
            y1="475.3374"
            x2="359.1357"
            y2="475.3374"
          >
					<stop offset="0" style="stop-color:#009FDE" />
					<stop offset="1" style="stop-color:#ffffff;stop-opacity:0" />
				</linearGradient>
				<path
            fill="url(#SVGID_13_)"
            d="M342.86,475.172c2.697,0.206,5.408,0.331,8.138,0.331c2.732,0,5.443-0.125,8.138-0.331
					c-2.704,0.098-5.409,0.206-8.138,0.206C348.271,475.377,345.566,475.27,342.86,475.172z"
          />
				<linearGradient
            id="SVGID_14_"
            gradientUnits="userSpaceOnUse"
            x1="203.396"
            y1="379.0635"
            x2="498.5942"
            y2="379.0635"
          >
					<stop offset="0" style="stop-color:#009FDE" />
					<stop offset="1" style="stop-color:#ffffff;stop-opacity:0" />
				</linearGradient>
				<path
            fill="url(#SVGID_14_)"
            d="M498.594,282.75c-9.979,72.62-72.236,128.569-147.596,128.569
					c-75.364,0-137.622-55.949-147.602-128.569c6.915,104.318,66.093,186.713,139.464,192.422c2.706,0.098,5.411,0.206,8.138,0.206
					c2.729,0,5.434-0.107,8.138-0.206C432.508,469.462,491.683,387.068,498.594,282.75z"
          />
				<linearGradient
            id="SVGID_15_"
            gradientUnits="userSpaceOnUse"
            x1="203.396"
            y1="145.5098"
            x2="498.5942"
            y2="145.5098"
          >
					<stop offset="0" style="stop-color:#009FDE" />
					<stop offset="1" style="stop-color:#ffffff;stop-opacity:0" />
				</linearGradient>
				<path
            fill="url(#SVGID_15_)"
            d="M203.396,241.82c9.98-72.62,72.238-128.567,147.602-128.567
					c75.36,0,137.617,55.948,147.596,128.567C491.683,137.51,432.52,55.125,359.155,49.404c-2.711-0.103-5.421-0.205-8.157-0.205
					c-2.733,0-5.444,0.102-8.155,0.205C269.479,55.125,210.311,137.51,203.396,241.82z"
          />
			</g>
			<linearGradient
          id="SVGID_16_"
          gradientUnits="userSpaceOnUse"
          x1="200.2998"
          y1="379.0625"
          x2="501.6978"
          y2="379.0625"
        >
				<stop offset="0" style="stop-color:#F2F9FE;stop-opacity:0" />
				<stop offset="0.5" style="stop-color:#DFF2FC" />
				<stop offset="1" style="stop-color:#FFFFFF;stop-opacity:0" />
			</linearGradient>
			<path
          fill="url(#SVGID_16_)"
          d="M351.001,478.477c-2.691,0-5.358-0.104-8.027-0.199c-0.041-0.004-0.31-0.013-0.351-0.019
				c-36.344-2.827-70.765-24.315-96.924-60.505c-25.885-35.807-42.003-83.683-45.392-134.799c-0.112-1.707,1.181-3.185,2.888-3.299
				c1.682-0.103,3.185,1.181,3.298,2.891c6.794,102.521,65.523,184.002,136.611,189.531c5.386,0.2,10.512,0.196,15.691,0.004
				c71.188-5.532,129.917-87.013,136.709-189.535c0.114-1.71,1.576-3.006,3.297-2.891c1.708,0.115,3,1.593,2.889,3.299
				c-3.387,51.123-19.505,98.992-45.388,134.799c-26.157,36.19-60.58,57.678-96.923,60.505c-0.041,0.006-0.31,0.015-0.352,0.019
				C356.361,478.373,353.693,478.477,351.001,478.477z"
        />
			<linearGradient
          id="SVGID_17_"
          gradientUnits="userSpaceOnUse"
          x1="200.2998"
          y1="145.5361"
          x2="501.6978"
          y2="145.5361"
        >
				<stop offset="0" style="stop-color:#F2F9FE;stop-opacity:0" />
				<stop offset="0.5" style="stop-color:#DFF2FC" />
				<stop offset="1" style="stop-color:#FFFFFF;stop-opacity:0" />
			</linearGradient>
			<path
          fill="url(#SVGID_17_)"
          d="M203.402,244.92c-0.069,0-0.137,0-0.208-0.005c-1.707-0.112-3-1.59-2.888-3.297
				c3.389-51.113,19.506-98.986,45.386-134.794c26.155-36.186,60.573-57.676,96.914-60.512c0.04,0,0.309-0.012,0.351-0.012
				c5.348-0.201,10.743-0.201,16.089,0c0.042,0,0.312,0.012,0.352,0.012c36.341,2.836,70.758,24.326,96.912,60.512
				c25.877,35.808,41.995,83.681,45.381,134.794c0.112,1.707-1.181,3.185-2.889,3.297c-1.702,0.121-3.184-1.181-3.297-2.888
				c-6.793-102.51-65.512-183.989-136.588-189.535c-5.396-0.193-10.536-0.193-15.727,0
				c-71.182,5.545-129.902,87.028-136.697,189.535C206.384,243.668,205.021,244.92,203.402,244.92z"
        />
		</g>
	</g>
</g>
</svg>
