<?xml version="1.0" encoding="utf-8" ?>
<!-- Generator: Adobe Illustrator 21.0.0, SVG Export Plug-In . SVG Version: 6.00 Build 0)  -->
<svg
  version="1.0"
  id="Laag_1"
  xmlns="http://www.w3.org/2000/svg"
  xmlns:xlink="http://www.w3.org/1999/xlink"
  x="0px"
  y="0px"
  viewBox="0 0 32 32"
  style="enable-background:new 0 0 32 32;"
  xml:space="preserve"
>
<style type="text/css">
	.st0{fill:#0e56c2;}
</style>
<g>
	<path
      class="st0"
      d="M17.8,19.5c-0.6,0-1.2,0.2-1.6,0.6l-2.5-1.4c0.3-0.5,0.4-1.1,0.4-1.8c0-2.1-1.6-3.8-3.6-4V4.5
		c1-0.2,1.8-1.1,1.8-2.2C12.3,1,11.3,0,10,0S7.8,1,7.8,2.3c0,1.1,0.8,2,1.8,2.2v8.5c-2,0.2-3.6,2-3.6,4c0,0.6,0.2,1.2,0.4,1.8
		l-2.5,1.4c-0.4-0.4-1-0.6-1.6-0.6c-1.3,0-2.3,1-2.3,2.3s1,2.3,2.3,2.3s2.3-1,2.3-2.3c0-0.3-0.1-0.5-0.2-0.8l2.5-1.4
		c0.7,0.8,1.6,1.3,2.6,1.4V24c-1,0.2-1.8,1.1-1.8,2.2c0,1.2,1,2.3,2.3,2.3s2.3-1,2.3-2.3c0-1.1-0.8-2-1.8-2.2V21
		c1.1-0.1,2-0.7,2.6-1.4l2.5,1.4c-0.1,0.2-0.2,0.5-0.2,0.8c0,1.2,1,2.3,2.3,2.3c1.2,0,2.3-1,2.3-2.3S19,19.5,17.8,19.5z M2.3,23.1
		c-0.7,0-1.3-0.6-1.3-1.3s0.6-1.3,1.3-1.3s1.3,0.6,1.3,1.3S3,23.1,2.3,23.1z M8.8,2.3C8.8,1.6,9.3,1,10,1s1.3,0.6,1.3,1.3
		S10.7,3.5,10,3.5S8.8,3,8.8,2.3z M11.3,26.2c0,0.7-0.6,1.3-1.3,1.3s-1.3-0.6-1.3-1.3s0.6-1.3,1.3-1.3S11.3,25.5,11.3,26.2z
		 M10,20.1c-1.7,0-3.1-1.4-3.1-3.1c0-1.7,1.4-3.1,3.1-3.1s3.1,1.4,3.1,3.1C13.1,18.7,11.7,20.1,10,20.1z M17.8,23.1
		c-0.7,0-1.3-0.6-1.3-1.3s0.6-1.3,1.3-1.3s1.3,0.6,1.3,1.3S18.5,23.1,17.8,23.1z"
    />
	<path
      class="st0"
      d="M11.3,15.2c-0.3,0-0.5,0.2-0.5,0.5v1.5L9,15.3c-0.1-0.1-0.4-0.2-0.5-0.1c-0.2,0.1-0.3,0.3-0.3,0.5v2.7
		c0,0.3,0.2,0.5,0.5,0.5s0.5-0.2,0.5-0.5v-1.4l1.9,1.9c0.1,0.1,0.2,0.1,0.4,0.1c0.1,0,0.1,0,0.2,0c0.2-0.1,0.3-0.3,0.3-0.5v-2.7
		C11.8,15.4,11.6,15.2,11.3,15.2z"
    />
	<path
      class="st0"
      d="M29.7,7.3c-1.2,0-2.3,1-2.3,2.3c0,0.3,0.1,0.6,0.2,0.8l-2.4,1.4c-0.8-0.9-1.9-1.5-3.1-1.5
		c-1.3,0-2.4,0.6-3.1,1.5l-2.5-1.4c0.1-0.2,0.2-0.5,0.2-0.8c0-1.3-1-2.3-2.3-2.3S12,8.3,12,9.5s1,2.3,2.3,2.3c0.6,0,1.2-0.2,1.6-0.6
		l2.5,1.5c-0.3,0.5-0.4,1.1-0.4,1.8c0,2.1,1.6,3.8,3.6,4v9.1c-1,0.2-1.8,1.1-1.8,2.2c0,1.2,1,2.3,2.3,2.3s2.3-1,2.3-2.3
		c0-1.1-0.8-2-1.8-2.2v-9.1c2-0.2,3.6-2,3.6-4c0-0.6-0.2-1.2-0.4-1.8l2.5-1.4c0.4,0.4,0.9,0.6,1.5,0.6c1.2,0,2.3-1,2.3-2.3
		S31,7.3,29.7,7.3z M14.3,10.8c-0.7,0-1.3-0.6-1.3-1.3s0.6-1.3,1.3-1.3s1.3,0.6,1.3,1.3S15,10.8,14.3,10.8z M23.3,29.7
		c0,0.7-0.6,1.3-1.3,1.3s-1.3-0.6-1.3-1.3s0.6-1.3,1.3-1.3S23.3,29,23.3,29.7z M22.1,17.5c-1.7,0-3.1-1.4-3.1-3.1
		c0-1.7,1.4-3.1,3.1-3.1s3.1,1.4,3.1,3.1C25.1,16.1,23.8,17.5,22.1,17.5z M29.7,10.8c-0.7,0-1.3-0.6-1.3-1.3s0.6-1.3,1.3-1.3
		S31,8.8,31,9.5S30.4,10.8,29.7,10.8z"
    />
	<path
      class="st0"
      d="M23.4,12.5c-0.3,0-0.5,0.2-0.5,0.5v1.5l-1.9-1.9c-0.1-0.1-0.4-0.2-0.5-0.1s-0.3,0.3-0.3,0.5v2.7
		c0,0.3,0.2,0.5,0.5,0.5s0.5-0.2,0.5-0.5v-1.4l1.9,1.9c0.1,0.1,0.2,0.1,0.4,0.1c0.1,0,0.1,0,0.2,0c0.2-0.1,0.3-0.3,0.3-0.5V13
		C23.9,12.7,23.7,12.5,23.4,12.5z"
    />
</g>
</svg>
