<?xml version="1.0" encoding="utf-8" ?>
<!-- Generator: Adobe Illustrator 21.0.0, SVG Export Plug-In . SVG Version: 6.00 Build 0)  -->
<svg
  version="1.0"
  id="Laag_1"
  xmlns="http://www.w3.org/2000/svg"
  xmlns:xlink="http://www.w3.org/1999/xlink"
  x="0px"
  y="0px"
  viewBox="0 0 32 32"
  style="enable-background:new 0 0 32 32;"
  xml:space="preserve"
>
<style type="text/css">
	.st0{fill:#0e56c2;}
</style>
<g>
	<path
      class="st0"
      d="M0.5,32c-0.1,0-0.2,0-0.3-0.1c-0.2-0.2-0.2-0.4-0.1-0.6l8.6-13.9H2.5c-0.2,0-0.4-0.1-0.4-0.3
		c-0.1-0.2-0.1-0.4,0-0.5L12.4,0.2C12.5,0.1,12.7,0,12.9,0h18.6c0.2,0,0.4,0.1,0.5,0.3c0.1,0.2,0,0.4-0.2,0.6L18.8,11h7.1
		c0.2,0,0.4,0.1,0.5,0.3c0.1,0.2,0,0.4-0.2,0.6l-25.4,20C0.7,32,0.6,32,0.5,32z M3.4,16.3h6.2c0.2,0,0.4,0.1,0.4,0.3
		c0.1,0.2,0.1,0.4,0,0.5L2.4,29.4l22-17.3h-7.1c-0.2,0-0.4-0.1-0.5-0.3c-0.1-0.2,0-0.4,0.2-0.6L30,1H13.1L3.4,16.3z"
    />
</g>
</svg>
