<?xml version="1.0" encoding="utf-8" ?>
<!-- Generator: Adobe Illustrator 21.0.0, SVG Export Plug-In . SVG Version: 6.00 Build 0)  -->
<svg
  version="1.0"
  id="Laag_1"
  xmlns="http://www.w3.org/2000/svg"
  xmlns:xlink="http://www.w3.org/1999/xlink"
  x="0px"
  y="0px"
  viewBox="0 0 32 32"
  style="enable-background:new 0 0 32 32;"
  xml:space="preserve"
>
<style type="text/css">
	.st0{fill:#0e56c2;}
</style>
<g>
	<path
      class="st0"
      d="M3.1,2.4c1,0,1.9-0.4,2.6-1.1C6.3,2,7.3,2.4,8.2,2.4s1.9-0.4,2.6-1.1c0.7,0.7,1.6,1.1,2.6,1.1
		c1,0,1.9-0.4,2.6-1.1c0.7,0.7,1.6,1.1,2.6,1.1c1,0,1.9-0.4,2.6-1.1c0.7,0.7,1.6,1.1,2.6,1.1c1,0,1.9-0.4,2.6-1.1
		C27,2,27.9,2.4,28.9,2.4c1.2,0,2.3-0.6,3-1.6C32,0.6,32,0.3,31.8,0.1C31.5,0,31.2,0,31.1,0.3c-0.5,0.7-1.3,1.2-2.2,1.2
		c-0.9,0-1.7-0.4-2.2-1.2C26.7,0.1,26.5,0,26.3,0S26,0.1,25.9,0.2c-0.5,0.7-1.3,1.2-2.2,1.2c-0.9,0-1.7-0.4-2.2-1.2
		C21.5,0.1,21.3,0,21.2,0s-0.3,0.1-0.4,0.2c-0.5,0.7-1.3,1.2-2.2,1.2c-0.9,0-1.7-0.4-2.2-1.2c-0.2-0.3-0.6-0.3-0.8,0
		c-0.5,0.7-1.3,1.2-2.2,1.2c-0.9,0-1.7-0.4-2.2-1.2C11.2,0.1,11,0,10.8,0c-0.2,0-0.3,0.1-0.4,0.2C9.9,1,9.1,1.4,8.2,1.4
		S6.6,1,6.1,0.2c-0.2-0.3-0.6-0.3-0.8,0C4.8,1,4,1.4,3.1,1.4C2.2,1.4,1.4,1,0.9,0.3C0.8,0,0.5,0,0.2,0.1C0,0.3,0,0.6,0.1,0.8
		C0.8,1.8,1.9,2.4,3.1,2.4z"
    />
	<path
      class="st0"
      d="M31.5,23.6c-0.9,0-1.7-0.4-2.2-1.2c-0.1-0.2-0.3-0.3-0.6-0.2c-0.1,0-0.2,0.1-0.3,0.3c-0.4,0.6-1.1,1-1.9,1.1
		l-3.7-6.5c0.3,0.1,0.6,0.1,0.8,0.1c1,0,1.9-0.4,2.6-1.1c0.7,0.7,1.6,1.1,2.6,1.1c1.2,0,2.3-0.6,3-1.6c0.2-0.2,0.1-0.5-0.1-0.7
		c-0.2-0.2-0.5-0.1-0.7,0.1c-0.5,0.7-1.3,1.2-2.2,1.2c-0.9,0-1.7-0.4-2.2-1.2c-0.1-0.1-0.2-0.2-0.4-0.2S26,14.9,25.9,15
		c-0.5,0.7-1.3,1.2-2.2,1.2c-0.7,0-1.3-0.3-1.8-0.7L18.2,9c0.1-0.1,0.2-0.2,0.3-0.3c0,0,0.1,0.1,0.1,0.1c0.1,0.1,0.1,0.1,0.2,0.2
		c0.1,0.1,0.3,0.2,0.5,0.3c0.1,0,0.2,0.1,0.2,0.1c0.2,0.1,0.4,0.2,0.5,0.2c0.1,0,0.1,0.1,0.2,0.1c0.3,0.1,0.5,0.1,0.8,0.1
		c0,0,0,0,0,0c0,0,0,0,0,0c1,0,1.9-0.4,2.6-1.1c0.7,0.7,1.6,1.1,2.6,1.1c0,0,0,0,0,0c0,0,0,0,0,0c0.3,0,0.5,0,0.8-0.1
		c0.1,0,0.1,0,0.2-0.1c0.2-0.1,0.4-0.1,0.5-0.2c0.1,0,0.2-0.1,0.2-0.1c0.2-0.1,0.3-0.2,0.5-0.3c0.1-0.1,0.1-0.1,0.2-0.2
		c0,0,0.1-0.1,0.1-0.1c0.7,0.7,1.6,1.1,2.6,1.1c0.3,0,0.5-0.2,0.5-0.5c0-0.3-0.2-0.5-0.5-0.5c-0.9,0-1.7-0.4-2.2-1.2
		c-0.1-0.1-0.2-0.2-0.4-0.2s-0.3,0.1-0.4,0.2c-0.1,0.1-0.1,0.2-0.2,0.2c-0.1,0.1-0.1,0.2-0.2,0.3c-0.1,0.1-0.1,0.1-0.2,0.2
		c-0.1,0.1-0.2,0.2-0.3,0.2c-0.1,0-0.1,0.1-0.2,0.1c-0.1,0.1-0.2,0.1-0.4,0.1c-0.1,0-0.3,0-0.4,0c-0.1,0-0.2,0-0.2,0
		c-0.9,0-1.7-0.4-2.2-1.2c-0.1-0.1-0.2-0.2-0.4-0.2c-0.1,0-0.3,0.1-0.4,0.2c0,0,0,0-0.1,0c-0.5,0.7-1.3,1.2-2.2,1.2
		c-0.1,0-0.2,0-0.3,0c-0.1,0-0.2,0-0.4,0c-0.1,0-0.3-0.1-0.4-0.2c-0.1,0-0.1,0-0.2-0.1c-0.1-0.1-0.2-0.1-0.3-0.2
		c-0.1,0-0.1-0.1-0.2-0.1c-0.1-0.1-0.1-0.2-0.2-0.2c-0.1-0.1-0.2-0.2-0.2-0.3c-0.1-0.1-0.2-0.2-0.4-0.2s-0.3,0.1-0.4,0.2
		C18,7.8,17.9,8,17.8,8.1l-1.3-2.3c-0.1-0.2-0.3-0.3-0.4-0.3c-0.2,0-0.3,0.1-0.4,0.3l-1.3,2.3c-0.2-0.1-0.3-0.3-0.4-0.5
		c-0.2-0.3-0.6-0.3-0.8,0c-0.5,0.7-1.3,1.2-2.2,1.2c-0.9,0-1.7-0.4-2.2-1.2C8.5,7.3,8,7.3,7.8,7.6C7.3,8.4,6.5,8.8,5.7,8.8
		C4.8,8.8,4,8.4,3.5,7.6c-0.2-0.3-0.6-0.3-0.8,0C2.2,8.4,1.4,8.8,0.5,8.8C0.2,8.8,0,9,0,9.3c0,0.3,0.2,0.5,0.5,0.5
		c1,0,1.9-0.4,2.6-1.1c0.7,0.7,1.6,1.1,2.6,1.1c1,0,1.9-0.4,2.6-1.1c0.7,0.7,1.6,1.1,2.6,1.1c1,0,1.9-0.4,2.6-1.1
		c0.1,0.1,0.2,0.2,0.3,0.3L10,15.5c-0.5,0.5-1.1,0.7-1.8,0.7c-0.9,0-1.7-0.4-2.2-1.2c-0.2-0.3-0.6-0.3-0.8,0
		c-0.5,0.7-1.3,1.2-2.2,1.2c-0.9,0-1.7-0.4-2.2-1.2c-0.2-0.2-0.5-0.3-0.7-0.1C0,15.1,0,15.4,0.1,15.6c0.7,1,1.8,1.6,3,1.6
		c1,0,1.9-0.4,2.6-1.1c0.7,0.7,1.6,1.1,2.6,1.1c0.3,0,0.6,0,0.8-0.1l-3.7,6.5c-0.8-0.1-1.4-0.5-1.9-1.1c-0.2-0.3-0.6-0.3-0.8,0
		c-0.5,0.7-1.3,1.2-2.2,1.2c-0.3,0-0.5,0.2-0.5,0.5c0,0.3,0.2,0.5,0.5,0.5c1,0,1.9-0.4,2.6-1.1c0.5,0.5,1.1,0.8,1.7,1l-0.4,0.7
		c-0.1,0.2-0.1,0.3,0,0.5c0.1,0.2,0.3,0.3,0.4,0.3h22.3c0.2,0,0.3-0.1,0.4-0.3c0.1-0.2,0.1-0.3,0-0.5l-0.4-0.7
		c0.7-0.2,1.3-0.5,1.8-1c0.7,0.7,1.6,1.1,2.6,1.1c0.3,0,0.5-0.2,0.5-0.5C32,23.8,31.8,23.6,31.5,23.6z M5.7,24.9L6,24.5
		c0.1-0.1,0.1-0.2,0.2-0.3l4.6-8.1c0,0,0,0,0,0c0.1-0.1,0.1-0.1,0.1-0.2L16,7.1l5.1,8.8c0,0.1,0.1,0.2,0.1,0.2c0,0,0,0,0,0l5.1,8.8
		H5.7z"
    />
	<path
      class="st0"
      d="M31.1,29.8c-0.5,0.7-1.3,1.2-2.2,1.2c-0.9,0-1.7-0.4-2.2-1.2c-0.1-0.1-0.2-0.2-0.4-0.2s-0.3,0.1-0.4,0.2
		c-0.5,0.7-1.3,1.2-2.2,1.2c-0.9,0-1.7-0.4-2.2-1.2c-0.1-0.1-0.2-0.2-0.4-0.2c-0.2,0-0.3,0.1-0.4,0.2c-0.5,0.7-1.3,1.2-2.2,1.2
		c-0.9,0-1.7-0.4-2.2-1.2c-0.2-0.3-0.6-0.3-0.8,0c-0.5,0.7-1.3,1.2-2.2,1.2c-0.9,0-1.7-0.4-2.2-1.2c-0.1-0.1-0.2-0.2-0.4-0.2
		c-0.2,0-0.3,0.1-0.4,0.2C9.9,30.6,9.1,31,8.2,31c-0.9,0-1.7-0.4-2.2-1.2c-0.1-0.1-0.2-0.2-0.4-0.2c-0.2,0-0.3,0.1-0.4,0.2
		C4.8,30.6,4,31,3.1,31c-0.9,0-1.7-0.4-2.2-1.2c-0.2-0.2-0.5-0.3-0.7-0.1c-0.2,0.2-0.3,0.5-0.1,0.7c0.7,1,1.8,1.6,3,1.6
		c1,0,1.9-0.4,2.6-1.1C6.3,31.6,7.3,32,8.2,32c1,0,1.9-0.4,2.6-1.1c0.7,0.7,1.6,1.1,2.6,1.1c1,0,1.9-0.4,2.6-1.1
		c0.7,0.7,1.6,1.1,2.6,1.1c1,0,1.9-0.4,2.6-1.1c0.7,0.7,1.6,1.1,2.6,1.1c1,0,1.9-0.4,2.6-1.1c0.7,0.7,1.6,1.1,2.6,1.1
		c1.2,0,2.3-0.6,3-1.6c0.2-0.2,0.1-0.5-0.1-0.7C31.5,29.6,31.2,29.6,31.1,29.8z"
    />
	<path
      class="st0"
      d="M15.4,17.8c0.2,0.2,0.5,0.2,0.7,0s0.2-0.5,0-0.7c-0.9-1-2.5-1-3.4,0c-0.9,1-0.9,2.5,0,3.5
		c0.5,0.5,1.1,0.7,1.7,0.7c0.6,0,1.2-0.2,1.7-0.7c0.2-0.2,0.2-0.5,0-0.7s-0.5-0.2-0.7,0c-0.6,0.6-1.5,0.6-2,0
		c-0.6-0.6-0.6-1.5,0-2.1C13.9,17.2,14.8,17.2,15.4,17.8z"
    />
	<path
      class="st0"
      d="M19.6,20.2h-1.8v-3.3c0-0.3-0.2-0.5-0.5-0.5s-0.5,0.2-0.5,0.5v3.8c0,0.3,0.2,0.5,0.5,0.5h2.2
		c0.3,0,0.5-0.2,0.5-0.5S19.9,20.2,19.6,20.2z"
    />
</g>
</svg>
